<svg width="50" height="50" viewBox="0 0 50 50" fill="none" xmlns="http://www.w3.org/2000/svg">
<path d="M14.9686 27.0062V39.0436L10.9562 41.0498C7.60073 38.1364 5.92298 36.6797 5.30907 35.0733C5.05211 34.401 4.92843 33.7127 4.93802 33.0249C4.92843 32.3372 5.05211 31.6488 5.30907 30.9766C5.92298 29.3702 7.60073 27.9134 10.9562 25L14.9686 27.0062Z" stroke="#2A3990" stroke-width="3.33178"/>
<path d="M35.0312 39.0436V27.0062L39.0437 25C42.3991 27.9134 44.0769 29.3702 44.6908 30.9766C44.9478 31.6488 45.0714 32.3372 45.0618 33.0249C45.0714 33.7127 44.9478 34.401 44.6908 35.0733C44.0769 36.6797 42.3991 38.1364 39.0437 41.0498L35.0312 39.0436Z" stroke="#2A3990" stroke-width="3.33178"/>
<path d="M18.9824 43.0557C22.3065 45.7306 27.6957 45.7306 31.0198 43.0557" stroke="#2A3990" stroke-width="3.33178" stroke-linejoin="round"/>
<path d="M4.9375 33.0247V24.9998C4.9375 13.9197 13.9197 4.9375 24.9998 4.9375C36.0798 4.9375 45.0621 13.9197 45.0621 24.9998L45.0623 33.0247" stroke="#2A3990" stroke-width="3.33178" stroke-linejoin="round"/>
</svg>
