<svg width="50" height="50" viewBox="0 0 50 50" fill="none" xmlns="http://www.w3.org/2000/svg">
<path d="M17.9785 23.9964L22.9941 29.012L33.0252 16.9746" stroke="#2A3990" stroke-width="3.33178" stroke-linecap="round" stroke-linejoin="round"/>
<path d="M43.0575 23.0961V13.2097C43.0575 11.6549 41.8828 10.3644 40.3593 10.0996C34.22 9.03238 29.1234 6.65828 26.6369 5.34184C25.6187 4.80272 24.3841 4.80272 23.3659 5.34184C20.8794 6.65828 15.7828 9.03238 9.64347 10.0996C8.12 10.3644 6.94531 11.6549 6.94531 13.2097V23.0961C6.94531 35.9929 20.0613 43.0276 23.9359 44.8244C24.6196 45.1414 25.3832 45.1414 26.0669 44.8244C29.9415 43.0276 43.0575 35.9929 43.0575 23.0961Z" stroke="#2A3990" stroke-width="3.33178" stroke-linecap="round"/>
</svg>
