<svg width="50" height="50" viewBox="0 0 50 50" fill="none" xmlns="http://www.w3.org/2000/svg">
<path d="M18.2367 26.3508H17.3159C14.3392 26.3508 12.8509 26.3508 12.2164 25.3694C11.582 24.3881 12.1865 23.0209 13.3955 20.2865L17.03 12.0657C18.1292 9.57955 18.6788 8.33645 19.745 7.6399C20.8113 6.94336 22.1644 6.94336 24.871 6.94336H29.0628C32.3507 6.94336 33.9946 6.94336 34.6145 8.01739C35.2346 9.09143 34.4191 10.5262 32.7878 13.3959L30.6373 17.1789C29.8264 18.6055 29.421 19.3188 29.4266 19.9026C29.434 20.6615 29.8374 21.3605 30.4893 21.7433C30.9908 22.038 31.808 22.038 33.4424 22.038C35.5087 22.038 36.5419 22.038 37.0799 22.3957C37.7789 22.8604 38.1448 23.6918 38.0166 24.5244C37.9179 25.1651 37.223 25.9335 35.8331 27.4705L24.7284 39.7498C22.5472 42.1617 21.4566 43.3677 20.7243 42.9861C19.9919 42.6043 20.3436 41.0136 21.047 37.8317L22.4248 31.5991C22.9603 29.1764 23.2281 27.965 22.5841 27.1579C21.9401 26.3508 20.7056 26.3508 18.2367 26.3508Z" stroke="#2A3990" stroke-width="3.33178" stroke-linejoin="round"/>
</svg>
